<svg width="14" height="13" viewBox="0 0 14 13" fill="none" xmlns="http://www.w3.org/2000/svg"><path d="M13 2.12c-2.649 3.222-5.548 5.89-8.89 8.08-1.047.69-1.304-3.08-1.45-4.02-.077-.49-.175-4.571-.128-4.515 1.784 2.12 3.558 4.298 5.41 6.374 1.126 1.262 1.637 2.64 1.612.342-.023-2.05-.567-3.872-.846-5.862-.286-2.04.066 4.143-.08 6.203-.059.83-.015 2.264-.367 3.017-.587 1.257-.146-2.87-.207-4.307-.06-1.394-.211-2.776-.224-4.173-.002-.252.168-3.099-.191-2.011A363.428 363.428 0 014 11.644c-.653 1.792-.573-3.71-.622-4.363-.01-.135-.272-3.198-.176-3.188.737.08 2.091 2.24 2.761 2.77.974.772 3.66 3.165 3.112 1.935-1.039-2.333-4.887-3.745-6.782-4.762-3.361-1.802.761.513 1.962.892 2.85.899 5.83 1.82 8.746 2.315" stroke="#EA0F32" stroke-linecap="round"/></svg>